<?xml version="1.0" encoding="UTF-8" standalone="no"?>
<svg
   xmlns:dc="http://purl.org/dc/elements/1.1/"
   xmlns:cc="http://creativecommons.org/ns#"
   xmlns:rdf="http://www.w3.org/1999/02/22-rdf-syntax-ns#"
   xmlns:svg="http://www.w3.org/2000/svg"
   xmlns="http://www.w3.org/2000/svg"
   viewBox="0 0 751.25336 925.79999"
   height="925.79999"
   width="751.25336"
   xml:space="preserve"
   id="svg2"
   version="1.1"><metadata
     id="metadata8"><rdf:RDF><cc:Work
         rdf:about=""><dc:format>image/svg+xml</dc:format><dc:type
           rdf:resource="http://purl.org/dc/dcmitype/StillImage" /></cc:Work></rdf:RDF></metadata><defs
     id="defs6" /><g
     transform="matrix(1.3333333,0,0,-1.3333333,0,925.8)"
     id="g10"><g
       transform="scale(0.1)"
       id="g12"><path
         id="path14"
         style="fill:#150f10;fill-opacity:1;fill-rule:nonzero;stroke:none"
         d="m 2786.4,319.988 c -8.34,-1.668 -29.99,31.25 -44.99,141.25 -15,110 -34.16,147.5 -50,166.25 -15.4,18.223 -43.34,47.5 -86.67,-4.16 -43.33,-51.656 -125,-13.34 -125,-13.34 85,8.332 71.66,66.672 83.33,120 11.67,53.332 85,138.34 101.67,170 16.67,31.66 31.66,128.342 35,146.672 3.34,18.33 6.66,36.67 -13.34,40 -20,3.33 -23.33,-30 -23.33,-30 -15,-105 -45,-140 -78.33,-203.332 -33.33,-63.328 -165,-123.34 -218.34,-148.34 -53.34,-25 -51.66,-111.668 -51.66,-111.668 -73.33,111.66 63.33,255 88.33,301.668 25,46.672 10,91.672 20,171.672 10,80 55,161.66 55,161.66 l -73.33,61.67 c 0,0 0,-26.67 -135,-223.33 -135,-196.66 -306.67,-110 -306.67,-110 150,36.668 130.34,214.66 145.84,309.58 20,122.5 152.49,220.42 152.49,220.42 -48.34,-3.33 -101.66,-63.34 -185,-133.34 -83.34,-70 -281.66,-56.66 -281.66,-56.66 80,40 140,151.66 178.33,243.33 38.33,91.67 173.33,161.67 173.33,161.67 l 220,438.33 c 23.33,20 131.67,85 35,110 -96.67,25 -85,60 -85,60 25.01,6.25 71.26,30 87.51,60 19.12,35.29 2.49,65 -9.18,101.66 -11.67,36.66 -8.33,86.67 -8.33,86.67 0,0 -88.33,-58.33 -121.67,-126.67 -33.34,-68.34 35,-123.33 35,-123.33 l -93.33,6.67 -128.33,-91.67 c -25,-80 -72.91,-124.58 -72.91,-124.58 3.75,46.25 -28.76,77.91 -28.76,77.91 -66.67,-175 -231.67,-180 -231.67,-180 133.33,65 100,220 81.67,266.67 -18.33,46.67 6.67,87.92 6.67,87.92 -35,-8.34 -68.34,-82.92 -68.34,-82.92 -55,146.67 -3.74,220 32.93,255 36.67,35 134.59,153.33 211.25,251.67 76.66,98.33 150.82,309.99 150.82,309.99 0,0 -81.66,-143.33 -160,-231.66 -78.34,-88.34 -146.66,-95 -183.33,-130 -36.67,-35 -33.33,-3.34 -3.33,51.66 30,55 15,106.67 48.33,226.67 33.33,120 208.33,316.67 208.33,316.67 -270,-145 -355,-596.67 -368.33,-640 -13.33,-43.34 -109.79,-338.54 -333.12,-495.21 -223.33,-156.67 -425.214,26.88 -425.214,26.88 230.844,0 316.254,223.33 379.594,376.66 63.34,153.33 142.93,383.34 140,620 -2.67,215.05 178.74,380 178.74,380 -255,-123.33 -291.7,-381.38 -316.24,-510.41 -38.75,-203.75 -243.75,-426.25 -403.754,-426.25 -167.5,0 -258.34,135 -258.34,135 218.34,3.75 299.59,195 344.594,285 62.64,125.29 35.41,256.66 82.07,420 46.66,163.33 305,371.66 305,371.66 -76.67,-30 -225,-200 -225,-200 0,0 -138.33,-170 -305.003,-163.33 -166.668,6.66 -221.661,170 -221.661,170 58.34,-43.34 135,-33.33 183.329,0 48.332,33.33 68.332,145 118.332,248.33 50,103.34 206.673,245 206.673,245 0,0 -210.005,-181.66 -405.005,-70 -195,111.67 -140,280 -140,280 181.671,-206.66 330,60 378.332,123.34 48.333,63.33 146.673,95 146.673,95 -195.005,-28.33 -305.005,40 -351.673,108.33 -46.668,68.33 -50,205 -55,245 -5,40 11.668,16.67 11.668,16.67 100,-91.67 205,-110 226.671,-110 21.668,0 60.004,15 75.004,23.33 15,8.33 61.66,8.33 61.66,8.33 -156.671,103.34 -133.335,230 -130.003,240 3.332,10 3.339,45 -11.661,68.34 -15,23.33 31.668,12.91 48.344,6.25 16.67,-6.67 91.9,-63.09 120,-73.75 36.25,-13.75 142.5,-5 180,-18.75 44.59,-16.35 135,-91.25 135,-91.25 0,0 26.68,-27.08 33.75,-17.5 9.12,12.36 -12.09,26.66 -12.09,26.66 -48.33,43.34 -50.41,102.09 -35,130 17.27,31.3 9.59,93.34 9.59,93.34 0,0 102.74,-143.46 186.25,-192.5 59.59,-35 241.43,-59.71 273.75,-277.5 30.42,-205 -177.5,-341.67 -177.5,-341.67 0,0 136.25,273.33 -10,268.33 -61.22,-2.09 -103.76,-97.91 -103.76,-193.33 0,-65 76.66,-95 145,-165 68.34,-70 149.98,-221.67 196.64,-221.67 46.66,0 209.99,-25 301.66,-93.33 0,0 -38.34,36.67 -25,81.67 0,0 50.01,-53.34 123.34,-53.34 73.33,0 230.03,15.42 266.7,177.09 l 156.25,143.75 266.71,-135.84 c 36.67,-161.66 113.33,-185 186.66,-185 73.33,0 123.34,53.34 123.34,53.34 13.34,-45 -25,-81.67 -25,-81.67 91.67,68.33 255,93.33 301.66,93.33 46.66,0 128.3,151.67 196.64,221.67 68.34,70 145,100 145,165 0,95.42 -42.54,191.24 -103.76,193.33 -146.25,5 -10,-268.33 -10,-268.33 0,0 -207.92,136.67 -177.5,341.67 32.31,217.79 214.16,242.5 273.75,277.5 83.5,49.04 186.25,192.5 186.25,192.5 0,0 -7.69,-62.04 9.59,-93.34 15.41,-27.91 13.33,-86.66 -35,-130 0,0 -21.21,-14.3 -12.09,-26.66 7.07,-9.58 33.75,17.5 33.75,17.5 0,0 90.41,74.9 135,91.25 37.5,13.75 143.75,5 180,18.75 28.09,10.66 103.33,67.08 120,73.75 16.67,6.66 63.34,17.08 48.34,-6.25 -15,-23.34 -14.99,-58.34 -11.66,-68.34 3.33,-10 26.67,-136.66 -130,-240 0,0 46.66,0 61.66,-8.33 15,-8.33 53.33,-23.33 75,-23.33 21.67,0 126.67,18.33 226.67,110 0,0 16.67,23.33 11.67,-16.67 -5,-40 -8.33,-176.67 -55,-245 C 4746,4629.99 4636,4561.66 4441,4589.99 c 0,0 98.34,-31.67 146.67,-95 48.33,-63.34 196.66,-330 378.33,-123.34 0,0 55,-168.33 -140,-280 -195,-111.66 -405,70 -405,70 0,0 156.67,-141.66 206.67,-245 50,-103.33 70,-215 118.33,-248.33 48.33,-33.33 124.99,-43.34 183.33,0 0,0 -54.99,-163.34 -221.66,-170 -166.67,-6.67 -305,163.33 -305,163.33 0,0 -148.33,170 -225,200 0,0 258.34,-208.33 305,-371.66 46.66,-163.34 19.42,-294.71 82.07,-420 45,-90 126.25,-281.25 344.59,-285 0,0 -90.84,-135 -258.34,-135 -160,0 -365,222.5 -403.75,426.25 -24.54,129.03 -61.24,387.08 -316.24,510.41 0,0 181.4,-164.95 178.74,-380 -2.93,-236.66 76.66,-466.67 140,-620 63.34,-153.33 148.75,-376.66 379.59,-376.66 0,0 -201.89,-183.55 -425.22,-26.88 -223.33,156.67 -319.78,451.87 -333.11,495.21 -13.33,43.33 -98.33,495 -368.33,640 0,0 175,-196.67 208.33,-316.67 33.33,-120 18.33,-171.67 48.33,-226.67 30,-55 33.34,-86.66 -3.33,-51.66 -36.67,35 -104.99,41.66 -183.33,130 -78.34,88.33 -160,231.66 -160,231.66 0,0 74.16,-211.66 150.82,-309.99 76.66,-98.34 174.58,-216.67 211.25,-251.67 36.67,-35 87.93,-108.33 32.93,-255 0,0 -33.34,74.58 -68.34,82.92 0,0 25,-41.25 6.67,-87.92 -18.33,-46.67 -51.66,-201.67 81.67,-266.67 0,0 -165,5 -231.67,180 0,0 -32.51,-31.66 -28.76,-77.91 0,0 -47.91,44.58 -72.91,124.58 l -128.33,91.67 -93.33,-6.67 c 0,0 68.34,54.99 35,123.33 -33.34,68.34 -121.67,126.67 -121.67,126.67 0,0 3.34,-50.01 -8.33,-86.67 -11.67,-36.66 -28.3,-66.37 -9.18,-101.66 16.25,-30 62.5,-53.75 87.51,-60 0,0 11.67,-35 -85,-60 -96.67,-25 11.67,-90 35,-110 l 220,-438.33 c 0,0 135,-70 173.33,-161.67 38.33,-91.67 98.33,-203.33 178.33,-243.33 0,0 -198.32,-13.34 -281.66,56.66 -83.34,70 -136.66,130.01 -185,133.34 0,0 132.49,-97.92 152.49,-220.42 15.49,-94.92 -4.16,-272.912 145.84,-309.58 0,0 -171.67,-86.66 -306.67,110 -135,196.66 -135,223.33 -135,223.33 l -73.33,-61.67 c 0,0 45,-81.66 55,-161.66 10,-80 -5,-125 20,-171.672 25,-46.668 161.66,-190.008 88.33,-301.668 0,0 1.68,86.668 -51.66,111.668 -53.34,25 -185.01,85.012 -218.34,148.34 -33.33,63.332 -63.33,98.332 -78.33,203.332 0,0 -3.33,33.33 -23.33,30 -20,-3.33 -16.68,-21.67 -13.34,-40 3.34,-18.33 18.33,-115.012 35,-146.672 16.67,-31.66 90,-116.668 101.67,-170 11.67,-53.328 -1.67,-111.668 83.33,-120 0,0 -81.67,-38.316 -125,13.34 -43.33,51.66 -71.27,22.383 -86.67,4.16 -15.84,-18.75 -35,-56.25 -50,-166.25 -15,-110 -36.65,-142.918 -44.99,-141.25" /><path
         id="path16"
         style="fill:#150f10;fill-opacity:1;fill-rule:nonzero;stroke:none"
         d="m 2357.65,4056.24 c 80.84,6.25 95.66,74.3 148.34,211.25 37.5,97.5 100.16,117.33 102.5,221.25 2.5,111.25 -90.83,114.58 -90.83,114.58 l 33.33,41.67 155,-15 -70,90 -145,100 v 128.33 l 106.72,93.35 c 30,-11.67 161.67,-5 251.67,-18.34 90,-13.33 188.33,-86.67 286.66,-136.67 98.34,-50 243.34,-31.67 243.34,-70 0,-38.34 -211.67,-56.67 -211.67,-56.67 0,0 22,-112.74 33.33,-155 17.45,-65 78.7,-96.25 78.7,-96.25 -78.33,-20 -138.71,6.25 -138.71,6.25 -66.67,-226.67 61.21,-301.25 61.21,-301.25 -63.33,-26.67 -164.54,27.91 -164.54,27.91 l -249.21,-221.66 -265,-48.75 -165.84,85" /><path
         id="path18"
         style="fill:#f9b00d;fill-opacity:1;fill-rule:nonzero;stroke:none"
         d="m 2840.12,4493.22 c -39.25,0.01 -93.66,37.9 -94.21,38.28 -106,68.02 -199.5,82.35 -259.34,82.44 -6.86,0.64 -14.83,0.99 -22.8,0.99 -14.96,0 -24.86,-1.22 -25.27,-1.27 -5.37,-0.2 -11.3,-0.34 -17.04,-0.34 -78.26,0 -118.66,24.11 -128.4,77.62 13.27,-5.3 34.13,-10.67 64.19,-10.67 22.26,0 46.94,2.93 73.37,8.7 16.86,3.68 35.09,5.55 54.18,5.55 61.66,0 116.98,-18.89 140.59,-26.96 8.59,-2.93 11.18,-3.82 13.89,-3.82 h 7.18 l 2.58,6.91 c 0.72,2.12 1.71,7.57 -4.5,12.29 -108.96,82.99 -203.96,125.06 -282.36,125.06 -80.13,0 -121.43,-43.32 -138.35,-67.76 -34.05,65.94 -37.94,122.4 -11.54,168.01 41.44,71.52 147.4,96.79 170.74,96.79 2.86,-0.13 4.83,-0.19 6.73,-0.19 22.78,0 35.35,8.4 56.18,22.31 6.22,4.15 13.39,8.94 22.07,14.36 10.63,6.65 24.54,10.03 41.31,10.03 23.48,0 52,-6.46 84.76,-19.2 3.2,-1.24 7.25,-2.32 12.34,-3.25 -34.13,-31.76 -51.01,-62.48 -50.26,-91.53 0.49,-18.82 8.38,-32.65 15.29,-41.22 -16.45,-11.58 -20.8,-25.76 -21.26,-36.47 -4.12,-93.82 281.25,-260.21 284.13,-261.88 26.71,-15.46 42.6,-35.59 44.76,-56.69 1.56,-15.28 -4.27,-30.43 -15.58,-40.53 -5.7,-5.09 -13.34,-7.56 -23.37,-7.56 h -0.01" /><path
         id="path20"
         style="fill:#150f10;fill-opacity:1;fill-rule:nonzero;stroke:none"
         d="m 2509.32,5061.55 c -16.85,0 -33.15,-3.13 -46.61,-11.55 -37.5,-23.43 -47.17,-35.15 -72.95,-35.15 -1.72,0 -3.51,0.05 -5.38,0.15 -0.41,0.03 -0.85,0.04 -1.35,0.04 -35.79,0 -293.96,-60.75 -159.54,-295.05 0,0 34.67,78.01 138.69,78.01 63.56,0 153.03,-29.12 276.31,-123.01 1.12,-0.86 1.36,-1.25 0.79,-1.25 -5.14,0 -75.05,30.78 -154.48,30.78 -18.49,0 -37.49,-1.67 -56.31,-5.78 -28.3,-6.18 -51.87,-8.47 -71.24,-8.47 -55.06,0 -76.26,18.47 -76.26,18.47 3.53,-66.07 41.61,-105.42 140.47,-105.42 5.88,0 11.97,0.14 18.28,0.42 0,0 9.52,1.19 24.03,1.19 6.69,0 14.43,-0.25 22.79,-0.99 64.01,-0.09 153.23,-16.22 253.6,-80.62 0,0 57.01,-40.1 99.96,-40.1 11.46,0 21.92,2.86 30.04,10.1 27.08,24.17 32.5,76.67 -30.83,113.33 -18.87,10.93 -380,227.5 -251.67,287.5 0,0 -69.93,51.02 42.3,142.14 -14.53,1.2 -25.77,2.86 -32.25,5.38 -19.91,7.74 -55.21,19.88 -88.39,19.88 z m 0,-20 v 0 c 21.49,0 47.71,-5.82 77.98,-17.31 -28.05,-29.64 -41.87,-58.77 -41.14,-86.93 0.4,-15.62 5.46,-28.85 11.73,-39.05 -13.35,-12.51 -17.21,-26.76 -17.69,-37.94 -4.38,-99.81 277.11,-264.03 289.11,-270.98 23.85,-13.81 37.99,-31.23 39.82,-49.05 1.23,-12.1 -3.36,-24.08 -12.29,-32.05 -3.78,-3.38 -9.25,-5.02 -16.72,-5.02 -29.91,0 -74.01,26.32 -88.46,36.46 l -0.34,0.24 -0.36,0.23 c -107.18,68.77 -202.31,83.56 -263.51,83.79 -7.75,0.66 -15.72,0.99 -23.68,0.99 -13.16,0 -22.71,-0.92 -25.61,-1.24 -5.73,-0.24 -11.33,-0.37 -16.7,-0.37 -74.59,0 -103.29,23.34 -114.23,52.59 13,-3.25 29.53,-5.64 50.02,-5.64 22.97,0 48.38,3.01 75.5,8.93 16.17,3.53 33.68,5.32 52.05,5.32 60,0 114.21,-18.52 137.36,-26.42 9.54,-3.26 12.75,-4.36 17.12,-4.36 l 14.65,0.11 4.59,13.61 c 0.78,2.31 4.07,14.31 -7.91,23.44 -110.76,84.34 -207.8,127.1 -288.43,127.1 -71.53,0 -114,-32.97 -136.37,-59 -25.92,56.59 -27.58,105.02 -4.85,144.24 41.94,72.41 149.12,91.8 162.3,91.79 v 0 c 2.27,-0.12 4.43,-0.18 6.5,-0.18 25.81,0 40.1,9.54 61.73,23.99 6.23,4.16 13.3,8.88 21.81,14.21 9.03,5.64 21.15,8.5 36.02,8.5" /><path
         id="path22"
         style="fill:#f9b00d;fill-opacity:1;fill-rule:nonzero;stroke:none"
         d="m 2716.01,4881.25 c 0,0 139.83,-25.25 246.66,5.82 0,0 -64.09,-20.38 -102.94,-31.07 0,0 -14.56,-25.25 -51.48,-20.4 -36.59,4.83 -43.7,30.11 -43.7,30.11 0,0 -18.43,1.95 -48.54,15.54" /><path
         id="path24"
         style="fill:#ffffff;fill-opacity:1;fill-rule:evenodd;stroke:none"
         d="m 3331.77,1617.2 c -6.93,-307.32 -261.77,-550.88 -569.06,-543.99 -307.31,6.94 -550.9,261.75 -543.98,569.06 6.92,307.3 261.76,550.88 569.06,543.96 307.3,-6.91 550.87,-261.76 543.98,-569.03 v 0" /><path
         id="path26"
         style="fill:#150f10;fill-opacity:1;fill-rule:evenodd;stroke:none"
         d="m 3016.92,2015.97 c 0.48,-7.48 8.33,-33.98 10.51,-42.55 3.45,-13.66 4.73,-30.77 7.03,-45.88 4.25,-28.33 2.37,-72.95 1.63,-105.19 1.7,-2.67 13.24,-14.04 24.03,-24.25 36.42,-34.56 66.92,-68.26 96.56,-109.08 14.83,-20.33 28.56,-41.45 31.4,-54.85 31.16,-0.7 70.49,9.93 90.66,15.1 5.28,31.11 10.61,62.26 15.9,93.37 1.6,71.33 -30.16,145.59 -60.06,187.34 -11.55,16.21 -49.82,44.05 -67.81,56.72 -10.36,7.32 -22.57,13.97 -35.33,18.42 -35.97,12.52 -76.85,9.98 -114.52,10.85 z m 3.84,-873.5 c -0.16,-0.14 50.5,9.83 137.78,94.06 22.76,21.79 93.15,110.22 100.99,140.73 -19.19,-19.67 -67.6,-64.63 -94.44,-79.9 -22.63,-49.45 -68.11,-94.35 -110.55,-128.35 -7.15,-5.73 -29.82,-21.43 -33.78,-26.54 z m 82.1,254.57 c -74.56,-45.45 -130.54,-57.48 -228.69,-51.4 -19.99,-35.83 -79.06,-129.92 -120.71,-140.06 1.99,-32.68 53.28,-95.67 82.39,-98.4 52.76,-7.25 114.9,6.55 142.79,17.73 67.98,39.34 139.72,108.09 178.77,177.62 -18.16,31.51 -36.37,63.01 -54.55,94.51 z m -406.46,779 c 28.2,-26.06 62.1,-37.96 102.14,-88 65.09,-1.49 148.08,-36.32 211.14,-59.98 38.96,-3.31 81.14,-4.42 120.62,-11.31 -2.39,39.07 -26.57,53.75 -51.6,71.37 -26.38,18.56 -50.15,29.74 -80.4,44.71 -100.66,49.87 -195.98,50.1 -301.9,43.21 z m 332.74,-363.6 c -7.15,0.16 -90.01,-19.53 -104.64,-22.82 -18.53,-4.21 -93.31,-22.81 -106.33,-22.81 -1.53,-33.79 -70.95,-215.06 -86.16,-244.98 20.63,-14.48 58.94,-59.08 75.89,-80.22 7.38,-9.22 67.94,-85.95 71.54,-86.02 10.08,-0.22 20.16,-0.46 30.23,-0.69 78.55,-1.77 168.84,20.45 200.06,67.37 32.73,49.2 67.91,123.02 69.74,203.69 0.21,9.05 -12.36,29.59 -26.67,50.14 -28.97,41.51 -60.03,76.39 -96.23,111.9 -14.01,13.75 -25.53,24.39 -27.43,24.44 z M 2743.3,1202.43 c -73.32,7.77 -141.53,43.84 -211.89,61.9 -29.35,-14.67 -90.3,-23.18 -135.32,-22.16 16.06,-30.11 36.83,-42.93 67.54,-63.95 23.17,-15.88 51.63,-33.76 78.48,-44.92 75.01,-31.15 144.03,-48.8 225.36,-50.63 8.11,-0.18 45.7,17.81 49.24,22.4 -27.05,6.92 -71.44,64.76 -73.41,97.36 z m -365.81,760.73 c 5.69,-8.91 57.09,-70.14 63.89,-70.29 0.91,-0.04 41.24,17.11 47.25,19.32 14.94,5.48 33.82,11.92 50.88,15.54 42.14,8.79 65.99,13.49 119.64,12.28 19.78,28.19 33.44,53.82 56.81,79.75 7.99,8.89 25.02,28.94 33.79,35.14 4.47,3.16 35.25,29.23 36.98,31.74 -35.71,41.25 -74.27,66.47 -106,78.43 -32.08,10.63 -30.79,3.82 -63.49,-5.95 -19.54,-5.79 -45.18,-15.18 -62.86,-23.58 -45.11,-21.49 -70.51,-36.04 -109.93,-63.73 -23.52,-16.54 -28.65,-19.65 -42.68,-45.93 -10.81,-20.29 -19.17,-45.04 -24.28,-62.72 z m 261.31,-32.74 c 6.13,-0.16 12.29,-0.27 18.45,-0.42 4.05,-0.1 127.47,-152.77 150.94,-159.63 -1.99,-43.86 -59.14,-177.57 -75.26,-218.51 -12.21,-30.97 -4.24,-26.6 -37.95,-34.25 -17.11,-3.85 -41.78,-7.86 -57.92,-13.28 -6.27,-2.14 -117.34,-26.43 -117.65,-26.43 -12.8,0.28 -31.43,13.97 -50.27,31.76 -27.48,25.98 -55.44,60.8 -66.09,75.48 -15.38,21.16 -29.24,45.25 -40.95,69.33 -8.36,17.16 8.96,76.17 13.89,93.75 12.19,43.53 46.35,127.61 83.59,141.11 53.38,19.34 104,42.76 179.22,41.09 z m -115.66,-659.15 c -13.68,-2.89 -32.33,-10.54 -49.38,-13.65 -19.28,-3.54 -33.87,-6.32 -56.87,-5.79 -5.04,0.1 -10.06,0.22 -15.12,0.33 -27.56,0.63 -59.37,37.88 -71.96,56.05 -56.83,81.94 -78.17,212.79 -80.75,308.74 0.17,3.84 91.05,34.57 99.64,37.82 3.63,-2.54 27.16,-45.48 31.72,-53.45 14.17,-24.66 43.36,-62.99 73.47,-91.92 19.29,-18.55 38.96,-33.21 55.31,-37.99 -0.46,-20.13 -0.91,-40.28 -1.36,-60.41 -1.36,-60.25 7.29,-89.79 17.06,-136.43 -0.57,-1.12 -1.16,-2.21 -1.76,-3.3 z m -154.47,697.7 c -1.44,-2.95 -43.32,-25.28 -48.79,-28.02 3.55,12.13 59.77,77.06 70.76,84.07 -0.82,0.67 -16.2,-39.24 -21.97,-56.05 z m 936.72,-196.33 c 3.24,-1.78 -10.26,-102.05 -14.6,-125.65 -0.08,-3.22 13.92,-37.44 16.4,-48.42 3.79,-16.81 6.8,-39.71 7.69,-59.79 12.01,76.66 12.61,154.28 -9.49,233.86 z m 36.28,-155.69 c -7.03,-312.77 -266.41,-560.71 -579.19,-553.64 -312.78,7.03 -560.69,266.41 -553.65,579.19 7.05,312.79 266.41,560.71 579.19,553.65 312.78,-7.06 560.71,-266.4 553.65,-579.2 z M 2237.82,1506.03 c -12.48,48.53 -15.33,83.23 -14.97,132.97 4.9,-12.01 8.5,-15.15 11.53,-22.51 8.9,-68.36 14.92,-132.28 39.85,-210.31 -3.52,-3.4 -34.49,92.4 -36.41,99.85 v 0" /><path
         id="path28"
         style="fill:#7b7979;fill-opacity:1;fill-rule:nonzero;stroke:none"
         d="m 3301,1528.31 c -3.43,0 -6.68,1.78 -8.53,4.78 -2.21,3.61 -1.9,8.23 0.76,11.52 0.54,0.67 53.01,66.87 43.58,164.09 -28.34,10.97 -35.03,59.17 -35.76,65.08 -12.92,103.45 -70.78,160.37 -86.18,171.15 -11.97,-3.13 -60.54,-29.08 -73.48,-42.01 -11.17,-11.16 -40.81,-40.81 -61.01,-96.35 -12.21,-33.57 -32.67,-40.62 -47.67,-40.62 -8.05,0 -16.68,1.95 -26.23,5.93 -0.7,-0.15 -1.42,-0.23 -2.15,-0.23 -0.34,0 -0.68,0.02 -1.02,0.05 -4.25,0.44 -8.52,0.65 -12.69,0.65 -81.89,0 -123.55,-84.21 -123.96,-85.06 -1.7,-3.5 -5.22,-5.64 -9,-5.64 -0.68,0 -1.36,0.07 -2.05,0.21 -4.5,0.94 -7.77,4.82 -7.94,9.41 -4.22,111.07 42.09,149.57 61.68,160.83 -4.97,23.61 -1.37,43.64 10.72,59.62 25.68,33.96 81.19,36.6 97.59,36.6 26.02,0 78.22,58.05 106.57,96.48 -5.31,16.39 -91.41,61.2 -156.1,80.61 -27.42,8.22 -43.06,17.93 -47.84,29.67 -0.39,0.96 -0.69,1.89 -0.91,2.78 -15.71,4.98 -34.03,7.5 -54.6,7.5 -40.47,0 -75.7,-9.89 -76.05,-10 -0.91,-0.25 -1.83,-0.38 -2.74,-0.38 -2.85,0 -5.6,1.21 -7.53,3.42 -2.54,2.91 -3.19,7.03 -1.64,10.58 30.69,70.34 95.31,80.83 131.09,80.83 6.35,0 11.71,-0.34 15.66,-0.71 6.89,11.42 17.14,17.2 30.57,17.2 23.23,0 54.93,-16.96 107.43,-45.05 11.99,-6.42 24.99,-13.37 39.06,-20.74 45.2,-23.68 84.82,-35.68 117.74,-35.68 25.81,0 42.97,7.09 56.36,14.03 29.99,15.54 75.88,119.98 109.39,196.24 12.74,28.99 24.78,56.38 34.59,76.02 11.72,23.43 31.32,35.81 56.69,35.81 48.63,0 103.49,-44.65 120.53,-69.65 31.59,-46.32 -64.96,-200.54 -87.1,-228.51 -25.17,-31.79 -55.85,-60.36 -121.57,-113.25 -43.67,-35.13 -7.33,-162.69 9.02,-190.47 4.63,-7.87 10.37,-13.47 17.03,-19.94 14.82,-14.43 33.27,-32.38 44.12,-83.03 6.47,-30.18 4.22,-53.97 -6.69,-70.71 -5.95,-9.15 -13.2,-14.13 -18.55,-16.77 -2.69,-29.18 -20.12,-143.05 -129.12,-166.08 -0.7,-0.14 -1.39,-0.21 -2.07,-0.21 v 0" /><path
         id="path30"
         style="fill:#231f20;fill-opacity:1;fill-rule:nonzero;stroke:none"
         d="m 3475.4,2496.93 c -28.99,0 -52.3,-14.68 -65.63,-41.34 -9.94,-19.86 -22.02,-47.36 -34.81,-76.47 -29.16,-66.38 -77.98,-177.46 -104.83,-191.39 -12.32,-6.37 -28.1,-12.9 -51.76,-12.9 -31.29,0 -69.35,11.62 -113.1,34.53 -14.04,7.36 -27,14.3 -38.96,20.7 -53.9,28.84 -86.43,46.24 -112.16,46.24 -11,0 -25.01,-3.24 -35.56,-16.79 -3.14,0.19 -6.72,0.3 -10.68,0.3 -65.05,0 -116.17,-31.65 -140.25,-86.83 -3.1,-7.1 -1.82,-15.34 3.28,-21.17 3.85,-4.41 9.37,-6.83 15.05,-6.83 1.83,0 3.68,0.25 5.49,0.77 0.33,0.09 34.35,9.61 73.3,9.61 17.53,0 33.28,-1.9 46.96,-5.66 6.63,-14.13 23.71,-24.93 53.5,-33.87 53.3,-15.99 128.49,-53.02 146.4,-71.16 -32.86,-43.21 -76.39,-86.35 -93.98,-86.35 -22.51,0 -77.87,-3.96 -105.57,-40.57 -9.08,-12 -18.02,-31.78 -13.73,-60.91 -23.76,-16.43 -64.7,-60.27 -60.69,-165.95 0.35,-9.17 6.9,-16.94 15.89,-18.82 1.37,-0.28 2.75,-0.42 4.11,-0.42 7.54,0 14.61,4.29 17.99,11.3 0.37,0.74 39.81,79.4 114.96,79.4 3.83,0 7.77,-0.2 11.68,-0.6 0.68,-0.07 1.35,-0.1 2.02,-0.1 0.26,0 0.51,0.01 0.78,0.02 9.83,-3.85 18.94,-5.72 27.61,-5.72 18.21,0 42.89,8.18 57.08,47.2 17.22,47.39 40.4,74.43 58.67,92.7 9.6,9.6 47.76,31.16 64.29,37.73 16.06,-13.94 66.34,-64.7 78.39,-161.08 1.21,-10.01 8.14,-54.55 36.19,-70.41 6.52,-89.74 -41.38,-150.58 -41.89,-151.21 -5.29,-6.59 -5.89,-15.82 -1.46,-23.02 3.7,-6.01 10.18,-9.55 17.04,-9.55 1.35,0 2.74,0.14 4.11,0.43 98.06,20.72 131.36,113.87 136.75,169.85 5.61,3.61 11.87,9.08 17.24,17.33 12.41,19.05 15.14,45.38 8.1,78.25 -11.5,53.61 -31.15,72.73 -46.94,88.1 -6.38,6.23 -11.43,11.14 -15.39,17.85 -17.47,29.7 -47.62,148.43 -11.36,177.6 66.37,53.42 97.45,82.4 123.14,114.85 16.04,20.26 125.03,185.33 87.52,240.35 -20.63,30.25 -78.36,74.01 -128.79,74.01 z m 0,-20 c 42.57,0 95.1,-40.1 112.27,-65.28 25,-36.67 -55.01,-176.67 -86.68,-216.67 -23.62,-29.82 -51.66,-56.68 -120,-111.67 -50.72,-40.8 -10,-174.99 6.67,-203.33 16.67,-28.34 45,-30 60,-100 15,-70 -25,-78.33 -25,-78.33 0,0 -3.32,-138.34 -121.66,-163.34 0,0 58.32,71.68 44.99,178.34 -28.33,3.33 -35,58.33 -35,58.33 -15,120 -86.67,176.67 -93.33,180.01 -0.32,0.16 -0.76,0.23 -1.3,0.23 -11.09,0 -67.76,-30.94 -82.04,-45.23 -15,-15 -43.33,-45 -63.33,-100 -9.42,-25.89 -23.62,-34.04 -38.28,-34.04 -10.32,0 -20.87,4.04 -30.13,8.8 1.13,-1.95 1.75,-3.1 1.75,-3.1 -4.69,0.48 -9.25,0.7 -13.71,0.7 -89.11,0 -132.96,-90.7 -132.96,-90.7 -5,131.67 63.33,155 63.33,155 -21.67,76.66 55,91.67 96.67,91.67 41.67,0 116.66,103.33 116.66,103.33 4.99,26.66 -113.32,78.34 -163.32,93.34 -50,15 -41.67,30 -41.67,30 -20.55,7.77 -43.32,10.37 -64.55,10.37 -42.49,0 -78.79,-10.38 -78.79,-10.38 28.57,65.49 89.46,74.83 121.92,74.83 12.98,0 21.42,-1.49 21.42,-1.49 5.19,12.47 13.14,17.98 24.81,17.98 25.75,0 69.6,-26.81 141.86,-64.65 53.49,-28.03 92.93,-36.82 122.37,-36.82 28.35,0 47.45,8.15 60.96,15.15 44.99,23.32 111.51,203.03 148.33,276.67 10.96,21.93 28.32,30.28 47.74,30.28" /><path
         id="path32"
         style="fill:#7b7979;fill-opacity:1;fill-rule:nonzero;stroke:none"
         d="m 2262.42,1528.31 c -0.68,0 -1.38,0.07 -2.07,0.21 -109,23.03 -126.43,136.9 -129.11,166.08 -5.36,2.64 -12.61,7.62 -18.56,16.77 -10.91,16.74 -13.16,40.53 -6.7,70.71 10.86,50.65 29.31,68.6 44.13,83.03 6.65,6.47 12.4,12.07 17.03,19.94 16.35,27.78 52.68,155.34 9.02,190.47 -65.73,52.89 -96.4,81.46 -121.57,113.25 -22.14,27.97 -118.69,182.19 -87.1,228.51 17.04,25 71.89,69.65 120.53,69.65 25.37,0 44.97,-12.38 56.69,-35.81 9.82,-19.64 21.85,-47.03 34.59,-76.02 33.51,-76.26 79.4,-180.7 109.39,-196.24 13.39,-6.94 30.55,-14.03 56.36,-14.03 32.93,0 72.54,12 117.73,35.68 14.08,7.37 27.07,14.32 39.07,20.74 52.5,28.09 84.19,45.05 107.43,45.05 13.43,0 23.68,-5.78 30.56,-17.2 3.96,0.37 9.31,0.71 15.67,0.71 35.78,0 100.4,-10.49 131.09,-80.83 1.54,-3.55 0.9,-7.67 -1.64,-10.58 -1.93,-2.21 -4.69,-3.42 -7.53,-3.42 -0.92,0 -1.83,0.13 -2.74,0.38 -0.35,0.11 -35.58,10 -76.05,10 -20.57,0 -38.89,-2.52 -54.6,-7.5 -0.22,-0.89 -0.52,-1.82 -0.91,-2.78 -4.78,-11.74 -20.42,-21.45 -47.84,-29.67 -64.57,-19.38 -150.46,-64.04 -156.06,-80.67 28.38,-38.44 80.55,-96.42 106.53,-96.42 16.4,0 71.91,-2.64 97.59,-36.6 12.09,-15.98 15.68,-36.01 10.72,-59.62 19.59,-11.26 65.9,-49.76 61.68,-160.83 -0.17,-4.58 -3.45,-8.46 -7.93,-9.4 -0.69,-0.14 -1.37,-0.21 -2.06,-0.21 -3.77,0 -7.29,2.14 -8.99,5.62 -0.42,0.85 -42.35,85.07 -123.97,85.07 -4.18,0 -8.44,-0.21 -12.69,-0.65 -0.34,-0.03 -0.69,-0.05 -1.02,-0.05 -0.73,0 -1.45,0.08 -2.16,0.23 -9.54,-3.98 -18.17,-5.93 -26.22,-5.93 -15.01,0 -35.47,7.05 -47.67,40.62 -20.2,55.54 -49.85,85.19 -61.01,96.35 -12.89,12.89 -61.19,38.7 -73.56,41.98 -15.15,-10.57 -73.16,-67.52 -86.12,-171.16 -0.71,-5.88 -7.4,-54.07 -35.74,-65.04 -9.43,-97.22 43.04,-163.42 43.58,-164.09 2.66,-3.29 2.96,-7.91 0.76,-11.52 -1.85,-3 -5.1,-4.78 -8.53,-4.78 v 0" /><path
         id="path34"
         style="fill:#231f20;fill-opacity:1;fill-rule:nonzero;stroke:none"
         d="m 2088.02,2496.93 h -0.01 c -50.43,0 -108.16,-43.76 -128.78,-74.01 -37.51,-55.02 71.48,-220.09 87.52,-240.35 25.69,-32.45 56.77,-61.43 123.14,-114.85 36.26,-29.17 6.11,-147.9 -11.36,-177.6 -3.95,-6.71 -9,-11.62 -15.4,-17.85 -15.79,-15.37 -35.43,-34.49 -46.92,-88.1 -7.05,-32.87 -4.33,-59.2 8.09,-78.25 5.37,-8.25 11.63,-13.72 17.24,-17.33 5.38,-55.98 38.68,-149.13 136.75,-169.85 1.38,-0.29 2.76,-0.43 4.13,-0.43 6.88,0 13.39,3.54 17.07,9.58 4.42,7.24 3.79,16.46 -1.55,23.05 -0.47,0.57 -48.37,61.41 -41.86,151.15 28.06,15.86 34.98,60.41 36.21,70.48 12.04,96.32 62.32,147.07 78.37,161.01 16.54,-6.57 54.7,-28.13 64.3,-37.73 18.27,-18.27 41.45,-45.31 58.67,-92.7 14.19,-39.02 38.87,-47.2 57.08,-47.2 8.67,0 17.78,1.87 27.61,5.72 0.26,-0.01 0.52,-0.02 0.78,-0.02 0.67,0 1.34,0.03 2.01,0.11 3.92,0.39 7.85,0.59 11.69,0.59 75.7,0 114.57,-78.61 114.95,-79.4 3.39,-7.01 10.45,-11.3 18,-11.3 1.36,0 2.74,0.14 4.1,0.42 9,1.88 15.55,9.65 15.9,18.82 4.01,105.68 -36.93,149.52 -60.69,165.95 4.29,29.13 -4.65,48.91 -13.73,60.91 -27.7,36.61 -83.06,40.57 -105.57,40.57 -17.63,0 -61.16,43.14 -93.98,86.35 17.9,18.14 93.09,55.17 146.39,71.16 29.8,8.94 46.88,19.74 53.51,33.87 13.68,3.76 29.42,5.66 46.96,5.66 38.96,0 72.97,-9.52 73.31,-9.62 1.81,-0.51 3.65,-0.75 5.46,-0.75 5.7,0 11.22,2.42 15.08,6.84 5.09,5.83 6.37,14.06 3.27,21.15 -24.08,55.18 -75.2,86.83 -140.25,86.83 -3.96,0 -7.54,-0.11 -10.69,-0.3 -10.54,13.54 -24.55,16.79 -35.54,16.79 -25.74,0 -58.26,-17.4 -112.14,-46.23 -11.97,-6.4 -24.94,-13.34 -39,-20.71 -43.75,-22.91 -81.8,-34.53 -113.09,-34.53 -23.66,0 -39.44,6.53 -51.76,12.9 -26.85,13.93 -75.67,125.01 -104.83,191.39 -12.8,29.11 -24.88,56.61 -34.81,76.47 -13.33,26.66 -36.63,41.34 -65.63,41.34 z m 0,-20 c 19.42,0 36.77,-8.35 47.74,-30.28 36.82,-73.64 103.34,-253.35 148.33,-276.67 13.51,-7 32.6,-15.15 60.96,-15.15 29.44,0 68.88,8.8 122.37,36.82 72.26,37.85 116.11,64.65 141.86,64.65 11.66,0 19.62,-5.51 24.81,-17.98 0,0 8.43,1.49 21.42,1.49 32.46,0 93.35,-9.35 121.92,-74.83 0,0 -36.31,10.38 -78.79,10.38 -21.23,0 -44,-2.6 -64.55,-10.37 0,0 8.33,-15 -41.67,-30 -50,-15 -168.31,-66.68 -163.32,-93.34 0,0 74.99,-103.33 116.66,-103.33 41.67,0 118.34,-15.01 96.67,-91.67 0,0 68.33,-23.33 63.33,-155 0,0 -43.85,90.7 -132.96,90.7 -4.46,0 -9.03,-0.22 -13.71,-0.7 0,0 0.62,1.15 1.75,3.1 -9.27,-4.76 -19.81,-8.8 -30.13,-8.8 -14.67,0 -28.86,8.16 -38.28,34.04 -20,55 -48.33,85 -63.33,100 -14.3,14.3 -70.97,45.23 -82.04,45.23 -0.55,0 -0.99,-0.07 -1.3,-0.23 -6.66,-3.34 -78.33,-60.01 -93.33,-180.01 0,0 -6.67,-55 -35,-58.33 -13.33,-106.66 44.99,-178.34 44.99,-178.34 -118.34,25 -121.66,163.34 -121.66,163.34 0,0 -40,8.33 -25,78.33 15,70 43.33,71.66 60,100 16.67,28.34 57.38,162.53 6.67,203.33 -68.34,54.99 -96.39,81.85 -120,111.67 -31.67,40 -111.68,180 -86.68,216.67 17.17,25.18 69.7,65.29 112.27,65.28" /><path
         id="path36"
         style="fill:#f9b00d;fill-opacity:1;fill-rule:nonzero;stroke:none"
         d="m 3587.67,2411.65 c -25,36.67 -125.01,105 -160.01,35 -36.82,-73.64 -103.34,-253.35 -148.33,-276.67 -27.53,-14.27 -78.33,-33.33 -183.33,21.67 -105,55 -150.01,86.67 -166.67,46.67 21.67,-44.99 0,-73.33 0,-73.33 0,0 -8.33,-15 41.67,-30 50,-15 168.31,-66.68 163.32,-93.34 0,0 -74.99,-103.33 -116.66,-103.33 -41.67,0 -118.34,-15.01 -96.67,-91.67 38.03,8.78 73.49,-47.91 81.59,-61.9 22.42,-11.52 52.37,-18.86 68.41,25.24 20,55 48.33,85 63.33,100 15,15 76.68,48.34 83.34,45 6.66,-3.34 78.33,-60.01 93.33,-180.01 0,0 6.67,-55 35,-58.33 0,0 46.67,26.67 76.67,-15 0,0 40,8.33 25,78.33 -15,70 -43.33,71.66 -60,100 -16.67,28.34 -57.39,162.53 -6.67,203.33 68.34,54.99 96.38,81.85 120,111.67 31.67,40 111.68,180 86.68,216.67" /><path
         id="path38"
         style="fill:#4f4c4c;fill-opacity:1;fill-rule:nonzero;stroke:none"
         d="m 3002.58,1784.75 c -8.1,13.99 -43.56,70.68 -81.59,61.9 0,0 -68.33,-23.33 -63.33,-155 0,0 48.34,100 146.67,90 0,0 -0.62,1.15 -1.75,3.1" /><path
         id="path40"
         style="fill:#4f4c4c;fill-opacity:1;fill-rule:nonzero;stroke:none"
         d="m 2929.33,2238.32 c 0,0 -103.34,18.33 -143.34,-73.34 0,0 81.68,23.35 143.34,0.01 0,0 21.67,28.34 0,73.33" /><path
         id="path42"
         style="fill:#4f4c4c;fill-opacity:1;fill-rule:nonzero;stroke:none"
         d="m 3345.99,1716.65 c 13.33,-106.66 -44.99,-178.34 -44.99,-178.34 118.34,25 121.66,163.34 121.66,163.34 -30,41.67 -76.67,15 -76.67,15" /><path
         id="path44"
         style="fill:#f9b00d;fill-opacity:1;fill-rule:nonzero;stroke:none"
         d="m 1975.75,2411.65 c 25,36.67 125.01,105 160.01,35 36.82,-73.64 103.34,-253.35 148.33,-276.67 27.53,-14.27 78.33,-33.33 183.33,21.67 105,55 150.01,86.67 166.67,46.67 -21.67,-44.99 0,-73.33 0,-73.33 0,0 8.33,-15 -41.67,-30 -50,-15 -168.31,-66.68 -163.32,-93.34 0,0 74.99,-103.33 116.66,-103.33 41.67,0 118.34,-15.01 96.67,-91.67 -38.04,8.78 -73.49,-47.91 -81.59,-61.9 -22.42,-11.52 -52.37,-18.86 -68.41,25.24 -20,55 -48.33,85 -63.33,100 -15,15 -76.68,48.34 -83.34,45 -6.66,-3.34 -78.33,-60.01 -93.33,-180.01 0,0 -6.67,-55 -35,-58.33 0,0 -46.67,26.67 -76.67,-15 0,0 -40,8.33 -25,78.33 15,70 43.33,71.66 60,100 16.67,28.34 57.38,162.53 6.67,203.33 -68.34,54.99 -96.39,81.85 -120,111.67 -31.67,40 -111.68,180 -86.68,216.67" /><path
         id="path46"
         style="fill:#4f4c4c;fill-opacity:1;fill-rule:nonzero;stroke:none"
         d="m 2560.84,1784.75 c 8.1,13.99 43.55,70.68 81.59,61.9 0,0 68.33,-23.33 63.33,-155 0,0 -48.34,100 -146.67,90 0,0 0.62,1.15 1.75,3.1" /><path
         id="path48"
         style="fill:#4f4c4c;fill-opacity:1;fill-rule:nonzero;stroke:none"
         d="m 2634.09,2238.32 c 0,0 103.34,18.33 143.34,-73.34 0,0 -81.68,23.35 -143.34,0.01 0,0 -21.67,28.34 0,73.33" /><path
         id="path50"
         style="fill:#4f4c4c;fill-opacity:1;fill-rule:nonzero;stroke:none"
         d="m 2217.43,1716.65 c -13.33,-106.66 44.99,-178.34 44.99,-178.34 -118.34,25 -121.66,163.34 -121.66,163.34 30,41.67 76.67,15 76.67,15" /><path
         id="path52"
         style="fill:#231f20;fill-opacity:1;fill-rule:nonzero;stroke:none"
         d="m 3480.99,2147.49 c 0,0 6.25,55 -10,80 0,0 25,-23.75 25,-50 0,-26.25 30,30 2.5,91.25 0,0 22.5,-27.5 27.5,-61.25" /><path
         id="path54"
         style="fill:#231f20;fill-opacity:1;fill-rule:nonzero;stroke:none"
         d="m 3358.49,2302.49 c 0,0 48.75,18.75 76.25,3.75 0,0 -31.25,23.75 -71.25,11.25 l 3.75,15 c 0,0 26.25,15 46.25,8.75 0,0 -6.25,8.75 -37.5,2.5" /><path
         id="path56"
         style="fill:#231f20;fill-opacity:1;fill-rule:nonzero;stroke:none"
         d="m 3020.99,1939.99 c 0,0 23.75,-3.75 41.25,-20 0,0 -26.25,28.75 -50,28.75" /><path
         id="path58"
         style="fill:#231f20;fill-opacity:1;fill-rule:nonzero;stroke:none"
         d="m 3412.24,1853.74 c 0,0 -20,25 -61.25,30 0,0 33.75,3.75 60,-17.5" /><path
         id="path60"
         style="fill:#231f20;fill-opacity:1;fill-rule:nonzero;stroke:none"
         d="m 3214.74,1949.99 c 0,0 15,17.5 12.5,52.5 0,0 10,-27.5 -3.75,-61.25 l -22.5,-1.25 c 0,0 16.25,36.25 -11.25,61.25 0,0 26.25,-41.25 -8.75,-73.75" /><path
         id="path62"
         style="fill:#231f20;fill-opacity:1;fill-rule:nonzero;stroke:none"
         d="m 3057.24,2214.99 c 0,0 22.5,-18.75 15,-58.75 0,0 10.83,17.08 0,56.25" /><path
         id="path64"
         style="fill:#231f20;fill-opacity:1;fill-rule:nonzero;stroke:none"
         d="m 3093.49,2075.82 c 0,0 30.83,14.58 37.08,59.58 0,0 3.76,-32.08 -20.41,-70.83" /><path
         id="path66"
         style="fill:#231f20;fill-opacity:1;fill-rule:nonzero;stroke:none"
         d="m 3602.65,2355.82 c 0,0 -17.5,18.33 -63.33,-2.5 0,0 25.84,42.5 61.67,45 0,0 -21.66,22.51 -35,11.67 0,0 6.67,10 5,33.33 0,0 -32.5,7.5 -41.67,-37.5 0,0 -7.5,20.83 7.5,60 0,0 -5.84,-20.01 -36.67,-24.17 0,0 25,15.84 11.67,39.17 0,0 -34.17,-19.99 -26.67,-55.83 0,0 -16.67,16.66 0,58.33 0,0 -5,-35.01 -37.5,-46.67 0,0 31.67,35.01 -0.83,48.34 0,0 -28.34,-48.33 -4.17,-80 0,0 -29.17,12.5 -25,60 4.17,47.5 53.34,63.33 53.34,63.33 0,0 113.33,-13.33 115.83,-15.83 2.5,-2.5 59.17,-78.33 62.5,-82.5 3.33,-4.17 -19.17,-81.67 -19.17,-81.67 l -27.5,7.5" /><path
         id="path68"
         style="fill:#231f20;fill-opacity:1;fill-rule:nonzero;stroke:none"
         d="m 2081.74,2147.49 c 0,0 -6.25,55 10,80 0,0 -25,-23.75 -25,-50 0,-26.25 -30,30 -2.5,91.25 0,0 -22.5,-27.5 -27.5,-61.25" /><path
         id="path70"
         style="fill:#231f20;fill-opacity:1;fill-rule:nonzero;stroke:none"
         d="m 2204.24,2302.49 c 0,0 -48.75,18.75 -76.25,3.75 0,0 31.25,23.75 71.25,11.25 l -3.75,15 c 0,0 -26.25,15 -46.25,8.75 0,0 6.25,8.75 37.5,2.5" /><path
         id="path72"
         style="fill:#231f20;fill-opacity:1;fill-rule:nonzero;stroke:none"
         d="m 2541.74,1939.99 c 0,0 -23.75,-3.75 -41.25,-20 0,0 26.25,28.75 50,28.75" /><path
         id="path74"
         style="fill:#231f20;fill-opacity:1;fill-rule:nonzero;stroke:none"
         d="m 2150.49,1853.74 c 0,0 20,25 61.25,30 0,0 -33.75,3.75 -60,-17.5" /><path
         id="path76"
         style="fill:#231f20;fill-opacity:1;fill-rule:nonzero;stroke:none"
         d="m 2347.99,1949.99 c 0,0 -15,17.5 -12.5,52.5 0,0 -10,-27.5 3.75,-61.25 l 22.5,-1.25 c 0,0 -16.25,36.25 11.25,61.25 0,0 -26.25,-41.25 8.75,-73.75" /><path
         id="path78"
         style="fill:#231f20;fill-opacity:1;fill-rule:nonzero;stroke:none"
         d="m 2505.49,2214.99 c 0,0 -22.5,-18.75 -15,-58.75 0,0 -10.83,17.08 0,56.25" /><path
         id="path80"
         style="fill:#231f20;fill-opacity:1;fill-rule:nonzero;stroke:none"
         d="m 2469.24,2075.82 c 0,0 -30.83,14.58 -37.08,59.58 0,0 -3.76,-32.08 20.41,-70.83" /><path
         id="path82"
         style="fill:#231f20;fill-opacity:1;fill-rule:nonzero;stroke:none"
         d="m 1960.08,2355.82 c 0,0 17.5,18.33 63.33,-2.5 0,0 -25.84,42.5 -61.67,45 0,0 21.66,22.51 35,11.67 0,0 -6.67,10 -5,33.33 0,0 32.5,7.5 41.67,-37.5 0,0 7.5,20.83 -7.5,60 0,0 5.84,-20.01 36.67,-24.17 0,0 -25,15.84 -11.67,39.17 0,0 34.17,-19.99 26.67,-55.83 0,0 16.67,16.66 0,58.33 0,0 5,-35.01 37.5,-46.67 0,0 -31.67,35.01 0.83,48.34 0,0 28.34,-48.33 4.17,-80 0,0 29.17,12.5 25,60 -4.17,47.5 -53.34,63.33 -53.34,63.33 0,0 -113.33,-13.33 -115.83,-15.83 -2.5,-2.5 -59.17,-78.33 -62.5,-82.5 -3.33,-4.17 19.17,-81.67 19.17,-81.67 l 27.5,7.5" /><path
         id="path84"
         style="fill:#150f10;fill-opacity:1;fill-rule:nonzero;stroke:none"
         d="m 2800.46,5820.18 c -1130.58,0 -2261.144,-332.51 -2660.14,-997.54 0,-532.05 -266.043,-3458.19 2660.15,-4788.308 2926.17,1330.118 2660.16,4256.258 2660.16,4788.308 -399.02,665.03 -1529.59,997.54 -2660.17,997.54 z m 0,-200 c 554.32,0 1100.59,-84.56 1538.2,-238.11 433.66,-152.15 751.23,-365.38 922.65,-618.73 0.42,-21.76 0.99,-45.47 1.61,-70.9 4.41,-182.5 11.82,-487.96 -21.42,-851.89 C 5201.69,3404.42 5113.54,2991.96 4979.52,2614.62 4604.05,1557.46 3871.21,763.98 2800.47,254.879 1729.73,763.969 996.887,1557.46 621.422,2614.6 487.398,2991.95 399.254,3404.41 359.438,3840.53 c -33.227,363.93 -25.829,669.39 -21.411,851.9 0.618,25.44 1.188,49.15 1.606,70.91 171.414,253.35 488.98,466.58 922.637,618.73 437.6,153.55 983.88,238.11 1538.19,238.11" /><path
         id="path86"
         style="fill:#f9b00d;fill-opacity:1;fill-rule:nonzero;stroke:none"
         d="m 260.66,5672.17 58.356,22.91 -137.008,348.87 -59.996,-23.56 -89.6018,228.15 496.8708,195.14 194.852,-213.87 -0.422,290.23 494.009,194 89.6,-228.15 -59.45,-23.35 137.01,-348.86 61.08,23.98 89.61,-228.15 -442.49,-173.77 -89.6,228.15 60.53,23.77 -107.311,273.24 7.196,-575.9 -145.594,-57.18 -382.278,422.23 105.145,-267.72 59.988,23.56 89.606,-228.16 -340.504,-133.72 -89.598,228.16" /><path
         id="path88"
         style="fill:#150f10;fill-opacity:1;fill-rule:nonzero;stroke:none"
         d="m 555.297,5814.74 -46,117.13 90.305,-99.74 -30.852,-12.11 -13.453,-5.28 z m 429.871,168.81 -1.762,140.97 48.194,-122.73 -13.99,-5.5 -32.442,-12.74 z m 246.682,762.9 -46.54,-18.28 -454.849,-178.63 -31.773,-12.48 0.046,-34.13 0.305,-208.45 -139.684,153.31 -23.187,25.45 -32.047,-12.59 L 46.543,6280.95 0,6262.67 l 18.2813,-46.54 71.3242,-181.61 18.2775,-46.54 46.535,18.28 13.457,5.28 118.727,-302.32 -11.813,-4.65 -46.543,-18.27 18.281,-46.54 71.325,-181.62 18.277,-46.54 46.539,18.28 293.965,115.45 46.543,18.27 -18.281,46.54 -71.332,181.62 -1.981,5.05 156.594,-172.96 23.187,-25.61 32.153,12.63 113.441,44.55 32.152,12.63 -0.433,34.53 -2.973,238.17 3.645,-9.27 71.322,-181.61 18.28,-46.54 46.53,18.28 395.96,155.49 46.54,18.28 -18.28,46.54 -71.33,181.61 -18.28,46.54 -46.54,-18.27 -14.54,-5.72 -118.73,302.33 12.91,5.07 46.54,18.28 -18.28,46.54 -71.32,181.61 -18.28,46.54 z m -28.26,-64.82 71.32,-181.61 -59.45,-23.34 155.29,-395.41 61.08,23.98 71.33,-181.61 -395.95,-155.5 -71.33,181.61 60.54,23.78 -166.424,423.76 8.688,-695.33 -113.446,-44.55 -462.484,510.82 164.281,-418.31 59.992,23.56 71.328,-181.62 -293.964,-115.44 -71.325,181.62 58.356,22.91 -155.285,395.41 -59.992,-23.56 -71.3247,181.61 457.5777,179.71 226.825,-248.97 -0.489,337.85 454.856,178.63" /><path
         id="path90"
         style="fill:#f9b00d;fill-opacity:1;fill-rule:nonzero;stroke:none"
         d="m 1941.97,6626.27 c -3.58,0 -7.37,-0.26 -11.24,-0.75 -25.86,-3.31 -42.58,-16.24 -52.64,-40.69 -8.1,-19.67 -14.85,-65.79 -1.03,-173.73 13.59,-106.13 31.86,-149.35 44.79,-166.92 13.63,-19.49 29.59,-28.34 50.55,-28.34 h 0.01 c 3.41,0 7.01,0.24 10.7,0.71 26.24,3.36 43.15,16.32 53.21,40.75 8.04,19.85 14.79,66.33 0.95,174.33 -13.43,104.89 -31.57,148.6 -44.42,166.81 -13.3,19.01 -29.45,27.83 -50.88,27.83 z m -11.69,-654.29 c -105.8,0 -199.44,28.69 -278.3,85.27 -99.83,70.88 -158.92,172.69 -175.56,302.54 -9.11,71.14 -0.47,143.15 25.66,214.02 25.93,70.82 72.69,134.34 138.96,188.76 23.9,19.39 49.23,35.76 75.41,48.75 25.78,12.78 54.51,23.88 85.39,32.97 30.74,9.05 63.8,15.87 98.27,20.29 29.76,3.81 58.85,5.74 86.46,5.74 112.82,0 208.87,-32.11 285.46,-95.45 46.95,-38.5 84.9,-82.74 112.7,-131.41 27.92,-48.93 45.81,-102.94 53.18,-160.53 15.23,-118.98 -15.2,-229.39 -90.46,-328.19 -75.35,-98.9 -187.63,-158.54 -333.73,-177.26 -28.53,-3.65 -56.61,-5.5 -83.44,-5.5" /><path
         id="path92"
         style="fill:#150f10;fill-opacity:1;fill-rule:nonzero;stroke:none"
         d="m 1972.4,6240.84 c -10.62,0 -19.74,2.92 -29.7,17.17 l -0.36,0.5 -0.36,0.49 c -7.37,10.01 -26.02,45.18 -40.12,155.28 -14.34,111.94 -5.23,149.91 -0.65,161.04 6.71,16.32 15.58,23.2 32.69,25.4 2.83,0.36 5.55,0.55 8.07,0.55 11.04,0 20.42,-2.91 30.34,-17.08 9.3,-13.17 26.71,-50.68 40.17,-155.74 14.35,-112.07 5.22,-150.54 0.62,-161.88 -6.62,-16.07 -15.63,-22.98 -33.17,-25.22 -2.64,-0.34 -5.17,-0.51 -7.53,-0.51 z m 14.18,654.48 v 0 c -28.68,0 -58.84,-2 -89.65,-5.94 -35.78,-4.59 -70.14,-11.68 -102.14,-21.1 -32.28,-9.51 -62.37,-21.14 -89.45,-34.57 -27.83,-13.8 -54.72,-31.17 -79.93,-51.63 -70,-57.47 -119.32,-124.62 -146.82,-199.74 -27.51,-74.57 -36.59,-150.55 -26.96,-225.72 17.55,-137.07 80.12,-244.67 185.98,-319.83 83,-59.54 181.53,-89.81 292.67,-89.81 27.89,0 57.03,1.92 86.61,5.71 152.99,19.6 270.89,82.47 350.45,186.9 79.38,104.21 111.47,220.79 95.37,346.51 -7.79,60.86 -26.72,117.97 -56.26,169.74 -29.33,51.35 -69.24,97.92 -118.65,138.42 -81.03,67.02 -182.44,101.06 -301.22,101.06 z m -14.18,-704.48 c 4.49,0 9.12,0.3 13.88,0.91 35.25,4.52 59.64,23.2 73.16,56.04 13.47,33.23 14.34,95.56 2.63,187.01 -11.36,88.72 -27.63,148.07 -48.79,178.06 -17.91,25.6 -41.69,38.41 -71.31,38.41 -4.66,0 -9.47,-0.32 -14.42,-0.96 -34.87,-4.46 -59.06,-23.12 -72.58,-55.96 -13.51,-32.84 -14.42,-94.99 -2.71,-186.42 11.51,-89.9 28,-149.41 49.45,-178.57 17.96,-25.68 41.52,-38.52 70.69,-38.52 m 14.17,654.48 c 107.36,0 197.2,-29.91 269.53,-89.72 44.87,-36.79 80.51,-78.3 106.92,-124.54 26.38,-46.24 43.1,-96.68 50.1,-151.31 14.43,-112.75 -14.09,-216.04 -85.55,-309.86 -71.49,-93.83 -177.16,-149.69 -317.03,-167.6 -27.61,-3.54 -54.36,-5.31 -80.26,-5.31 -100.93,0 -188.84,26.86 -263.73,80.58 -94.45,67.06 -149.55,162.19 -165.33,285.41 -8.63,67.42 -0.53,134.81 24.32,202.19 24.51,66.93 68.3,126.3 131.37,178.09 22.47,18.24 46.02,33.45 70.65,45.67 24.62,12.21 51.74,22.67 81.34,31.39 29.6,8.71 61.06,15.2 94.39,19.47 28.84,3.7 56.6,5.54 83.28,5.54" /><path
         id="path94"
         style="fill:#f9b00d;fill-opacity:1;fill-rule:nonzero;stroke:none"
         d="m 2754.54,6039.62 -247.71,631.97 -68.65,1.35 4.85,245.07 488.18,-9.65 -4.84,-245.06 -58.92,1.16 81.71,-249.85 95.71,246.35 -56.01,1.1 4.84,245.07 378.63,-7.48 -4.84,-245.07 -68.26,1.35 -257.27,-622 -287.42,5.69" /><path
         id="path96"
         style="fill:#150f10;fill-opacity:1;fill-rule:nonzero;stroke:none"
         d="m 2418.53,6943.5 -0.99,-49.98 -3.86,-195.08 -0.98,-49.99 49.99,-0.99 26.96,-0.54 235.53,-600.88 12.18,-31.09 33.38,-0.66 253.66,-5.01 34.14,-0.68 13.05,31.56 244.22,590.43 26.19,-0.51 49.99,-0.99 0.99,49.99 3.86,195.08 0.98,49.99 -49.99,0.99 -328.64,6.49 -49.99,0.99 -0.99,-49.99 -3.85,-195.08 -0.99,-49.99 45.24,-0.9 -57.43,-147.82 -49.02,149.93 48.71,-0.97 0.99,49.99 3.85,195.08 0.99,50 -49.99,0.98 -438.19,8.67 -49.99,0.98 z m 49,-50.98 438.19,-8.66 -3.85,-195.07 -69.13,1.36 114.4,-349.79 133.99,344.88 -66.78,1.32 3.85,195.08 328.65,-6.5 -3.86,-195.07 -60.33,1.19 -257.27,-621.99 -253.66,5.01 -247.72,631.97 -60.34,1.2 3.86,195.07" /><path
         id="path98"
         style="fill:#f9b00d;fill-opacity:1;fill-rule:nonzero;stroke:none"
         d="m 3760.77,6401.78 -20.61,123.09 -55.89,-112.97 z m -56.67,-428.89 29.97,226.74 62.25,-8.22 -8.9,54.16 -170.78,22.58 -25.04,-49.69 56.11,-7.42 -29.98,-226.74 -369.61,48.87 32.11,243 68.94,-9.12 182.88,353.9 -54.58,7.21 32.12,243.01 630.45,-83.34 -32.12,-243 -54.36,7.19 87.23,-389.6 66.72,-8.82 -32.13,-243.01 -471.28,62.3" /><path
         id="path100"
         style="fill:#150f10;fill-opacity:1;fill-rule:nonzero;stroke:none"
         d="m 3722.16,6432.11 6.11,12.36 2.26,-13.47 -8.37,1.11 z m -234.08,467.12 -6.56,-49.57 -25.56,-193.43 -6.56,-49.58 44.11,-5.83 -158.48,-306.68 -26.74,3.54 -49.57,6.55 -6.55,-49.57 -25.57,-193.43 -6.55,-49.57 49.57,-6.55 320.06,-42.31 49.57,-6.55 6.55,49.56 23.43,177.17 6.55,49.57 -46.02,6.09 1.21,2.4 134.79,-17.82 0.43,-2.61 -4.06,0.53 -49.57,6.55 -6.55,-49.56 -23.42,-177.17 -6.55,-49.57 49.57,-6.56 421.71,-55.74 49.57,-6.56 6.56,49.57 25.57,193.44 6.56,49.57 -49.57,6.55 -24.64,3.26 -75.59,337.62 43.65,-5.77 6.56,49.57 25.56,193.43 6.56,49.57 -49.57,6.55 -580.89,76.79 -49.57,6.55 z m 302.94,-526.66 -38.99,232.7 -105.65,-213.58 144.64,-19.12 m -259.93,470.54 580.89,-76.79 -25.56,-193.43 -65.07,8.6 98.86,-441.56 59.24,-7.84 -25.57,-193.43 -421.72,55.74 23.42,177.17 70.87,-9.36 -17.36,105.72 -206.79,27.33 -48.86,-96.96 66.22,-8.76 -23.43,-177.17 -320.06,42.31 25.57,193.43 61.57,-8.14 207.28,401.1 -65.06,8.6 25.56,193.44" /><path
         id="path102"
         style="fill:#f9b00d;fill-opacity:1;fill-rule:nonzero;stroke:none"
         d="m 4748.6,5672.52 84.12,205.1 42.14,-17.28 -49.44,103.06 -101.15,-41.3 46.83,-19.21 -84.12,-205.1 -483.2,198.19 93.02,226.78 99.73,-40.91 287.8,80.78 -145.79,266.08 -95.18,39.04 93.01,226.79 548.26,-224.87 -84.12,-205.1 -36.75,15.07 41.21,-82.25 79.71,32.66 -31.77,13.03 84.12,205.1 464.78,-190.63 -93.02,-226.78 -127.49,52.28 -235.81,-74.98 159.65,-298.88 90.15,-36.97 -93,-226.79 -553.69,227.09" /><path
         id="path104"
         style="fill:#150f10;fill-opacity:1;fill-rule:nonzero;stroke:none"
         d="m 4522.72,6727.15 -18.97,-46.26 -74.03,-180.53 -18.98,-46.26 46.26,-18.97 63.87,-26.19 126.42,-230.74 -249.22,-69.96 -68.66,28.16 -46.26,18.98 -18.97,-46.26 -74.04,-180.53 -18.98,-46.26 46.26,-18.97 436.95,-179.21 46.26,-18.98 18.97,46.26 65.15,158.84 18.97,46.27 -13.45,5.51 22.8,9.3 11.14,-23.22 -5.13,2.1 -18.97,-46.26 -65.15,-158.83 -18.97,-46.26 46.26,-18.98 507.42,-208.11 46.26,-18.98 18.97,46.27 74.04,180.52 18.97,46.26 -46.26,18.97 -58.7,24.08 -141.26,264.44 198.53,63.13 95.95,-39.35 46.26,-18.98 18.98,46.26 74.04,180.53 18.97,46.26 -46.26,18.97 -418.51,171.65 -46.26,18.98 -18.98,-46.26 -65.14,-158.84 -18.36,-44.76 -3.97,-1.62 -2.13,4.24 18.32,44.65 65.14,158.84 18.98,46.26 -46.26,18.98 -502.01,205.89 -46.26,18.97 z m 27.29,-65.23 502,-205.9 -65.14,-158.83 -75.36,30.9 81.5,-162.62 157.58,64.57 -65.06,26.68 65.14,158.84 418.52,-171.65 -74.04,-180.52 -112.77,46.24 -273.1,-86.84 178.04,-333.31 75.36,-30.91 -74.04,-180.52 -507.42,208.11 65.15,158.84 79.15,-32.46 -87.75,182.91 -179.52,-73.3 80.24,-32.9 -65.15,-158.84 -436.94,179.21 74.04,180.52 84.57,-34.69 326.36,91.61 -165.16,301.42 -80.23,32.91 74.03,180.53" /><path
         id="path106"
         style="fill:#150f10;fill-opacity:1;fill-rule:nonzero;stroke:none"
         d="m 3234.32,293.34 c 0,0 333.32,6.66 546.66,-293.34 l -46.66,260 253.33,-26.66 c 0,0 -213.33,266.66 -493.33,313.332" /><path
         id="path108"
         style="fill:#150f10;fill-opacity:1;fill-rule:nonzero;stroke:none"
         d="m 2360.99,293.34 c 0,0 -333.32,6.66 -546.66,-293.34 l 46.66,260 -253.33,-26.66 c 0,0 213.33,266.66 493.33,313.332" /><path
         id="path110"
         style="fill:#150f10;fill-opacity:1;fill-rule:nonzero;stroke:none"
         d="m 1925.28,236.66 c 216.31,360.551 1524.43,376.61 1750.38,0 v 329.801 c -262.54,437.589 -1487.85,437.589 -1750.38,0 V 236.66" /><g
         transform="scale(10)"
         id="g112"><text
           id="text116"
           style="font-variant:normal;font-weight:800;font-size:25.06469917px;font-family:'Rock Salt', georgia;-inkscape-font-specification:Rockwell-ExtraBold;writing-mode:lr-tb;fill:#f9b00d;fill-opacity:1;fill-rule:nonzero;stroke:none"
           transform="matrix(1,0,0,-1,244.946,60.3641)"><tspan
             id="tspan114"
             y="0"
             x="0 17.244514 34.489029 51.73354">2002</tspan></text>
</g></g></g></svg>
